{
    "asset" : {
        "generator" : "Khronos glTF Blender I/O v1.3.48",
        "version" : "2.0"
    },
    "scene" : 0,
    "scenes" : [
        {
            "name" : "Scene",
            "nodes" : [
                0,
                1
            ]
        }
    ],
    "nodes" : [
        {
            "mesh" : 0,
            "name" : "Glass"
        },
        {
            "mesh" : 1,
            "name" : "Plastic"
        }
    ],
    "materials" : [
        {
            "alphaMode" : "BLEND",
            "emissiveFactor" : [
                0,
                0,
                0
            ],
            "name" : "GLASS",
            "normalTexture" : {
                "index" : 0,
                "texCoord" : 0
            },
            "pbrMetallicRoughness" : {
                "baseColorTexture" : {
                    "index" : 1,
                    "texCoord" : 0
                },
                "metallicRoughnessTexture" : {
                    "index" : 2,
                    "texCoord" : 0
                }
            }
        },
        {
            "emissiveFactor" : [
                0,
                0,
                0
            ],
            "name" : "PLASTIC",
            "normalTexture" : {
                "index" : 3,
                "texCoord" : 0
            },
            "pbrMetallicRoughness" : {
                "baseColorTexture" : {
                    "index" : 4,
                    "texCoord" : 0
                },
                "metallicRoughnessTexture" : {
                    "index" : 5,
                    "texCoord" : 0
                }
            }
        }
    ],
    "meshes" : [
        {
            "name" : "Object009",
            "primitives" : [
                {
                    "attributes" : {
                        "POSITION" : 0,
                        "NORMAL" : 1,
                        "TEXCOORD_0" : 2
                    },
                    "indices" : 3,
                    "material" : 0
                }
            ]
        },
        {
            "name" : "Object009.001",
            "primitives" : [
                {
                    "attributes" : {
                        "POSITION" : 4,
                        "NORMAL" : 5,
                        "TEXCOORD_0" : 6
                    },
                    "indices" : 7,
                    "material" : 1
                }
            ]
        }
    ],
    "textures" : [
        {
            "source" : 0
        },
        {
            "source" : 1
        },
        {
            "source" : 2
        },
        {
            "source" : 3
        },
        {
            "source" : 4
        },
        {
            "source" : 5
        }
    ],
    "images" : [
        {
            "mimeType" : "image/png",
            "name" : "GLASS_normal",
            "uri" : "GLASS_normal.png"
        },
        {
            "mimeType" : "image/png",
            "name" : "GLASS_baseColor",
            "uri" : "GLASS_baseColor.png"
        },
        {
            "mimeType" : "image/png",
            "name" : "GLASS_ORM",
            "uri" : "GLASS_ORM.png"
        },
        {
            "mimeType" : "image/png",
            "name" : "PLASTIC_normal",
            "uri" : "PLASTIC_normal.png"
        },
        {
            "mimeType" : "image/png",
            "name" : "PLASTIC_baseColor",
            "uri" : "PLASTIC_baseColor.png"
        },
        {
            "mimeType" : "image/png",
            "name" : "PLASTIC_ORM",
            "uri" : "PLASTIC_ORM.png"
        }
    ],
    "accessors" : [
        {
            "bufferView" : 0,
            "componentType" : 5126,
            "count" : 4850,
            "max" : [
                1.0302941799163818,
                3.5675370693206787,
                0.42080190777778625
            ],
            "min" : [
                -0.8713259100914001,
                1.1888186931610107,
                -0.8106597661972046
            ],
            "type" : "VEC3"
        },
        {
            "bufferView" : 1,
            "componentType" : 5126,
            "count" : 4850,
            "type" : "VEC3"
        },
        {
            "bufferView" : 2,
            "componentType" : 5126,
            "count" : 4850,
            "type" : "VEC2"
        },
        {
            "bufferView" : 3,
            "componentType" : 5123,
            "count" : 25074,
            "type" : "SCALAR"
        },
        {
            "bufferView" : 4,
            "componentType" : 5126,
            "count" : 7205,
            "max" : [
                0.9770632982254028,
                3.4555516242980957,
                1.0146384239196777
            ],
            "min" : [
                -0.8974038362503052,
                0,
                -1.031249761581421
            ],
            "type" : "VEC3"
        },
        {
            "bufferView" : 5,
            "componentType" : 5126,
            "count" : 7205,
            "type" : "VEC3"
        },
        {
            "bufferView" : 6,
            "componentType" : 5126,
            "count" : 7205,
            "type" : "VEC2"
        },
        {
            "bufferView" : 7,
            "componentType" : 5123,
            "count" : 33867,
            "type" : "SCALAR"
        }
    ],
    "bufferViews" : [
        {
            "buffer" : 0,
            "byteLength" : 58200,
            "byteOffset" : 0
        },
        {
            "buffer" : 0,
            "byteLength" : 58200,
            "byteOffset" : 58200
        },
        {
            "buffer" : 0,
            "byteLength" : 38800,
            "byteOffset" : 116400
        },
        {
            "buffer" : 0,
            "byteLength" : 50148,
            "byteOffset" : 155200
        },
        {
            "buffer" : 0,
            "byteLength" : 86460,
            "byteOffset" : 205348
        },
        {
            "buffer" : 0,
            "byteLength" : 86460,
            "byteOffset" : 291808
        },
        {
            "buffer" : 0,
            "byteLength" : 57640,
            "byteOffset" : 378268
        },
        {
            "buffer" : 0,
            "byteLength" : 67734,
            "byteOffset" : 435908
        }
    ],
    "buffers" : [
        {
            "byteLength" : 503644,
            "uri" : "KitcheAid_Blender.bin"
        }
    ]
}
